<?xml version="1.0" encoding="UTF-8"?><svg xmlns="http://www.w3.org/2000/svg" viewBox="0 0 172.16 172.16"><defs><style>.d{fill:none;}</style></defs><g id="a"/><g id="b"><g id="c"><rect class="d" width="172.16" height="172.16" rx="26.5" ry="26.5"/><g><path d="M143.24,69.58c-8.74-25.52-36.24-49.81-41.44-53.14-4.51-2.88-15.72-2.37-15.72-2.37,0,0-11.45-.58-15.72,2.37-5.07,3.51-32.7,27.62-41.44,53.14-8.74,25.52-9.09,32.86-8.04,36.01,1.05,3.15,.7,5.94,18.53,23.42,17.83,17.48,37.75,31.46,45.1,31.11h3.15c7.34,.35,27.27-13.63,45.1-31.11,17.83-17.48,17.48-20.28,18.53-23.42,1.05-3.15,.7-10.49-8.04-36.01Zm-24.12,37.41c-19.23-15.38-33.21-16.78-33.21-16.78-10.84,0-32.51,16.78-32.51,16.78l-7.34-26.22c4.53-5.41,10.95-11.08,17.32-16.13h45.41c9.64,8.23,17.32,16.13,17.32,16.13l-6.99,26.22Z"/><g><ellipse cx="70.11" cy="80.88" rx="7.15" ry="5.21" transform="translate(-7.7 7.38) rotate(-5.71)"/><ellipse cx="102.04" cy="80.88" rx="5.21" ry="7.15" transform="translate(11.41 174.37) rotate(-84.29)"/></g></g></g></g></svg>