<?xml version="1.0" encoding="UTF-8"?><svg xmlns="http://www.w3.org/2000/svg" viewBox="0 0 347.22 62.99"><defs><style>.d{fill:#fff;}</style></defs><g id="a"/><g id="b"><g id="c"><g><path class="d" d="M52.93,23.95C49.16,12.95,37.3,2.48,35.06,1.04,33.12-.2,28.29,.02,28.29,.02c0,0-4.94-.25-6.78,1.02C19.32,2.56,7.41,12.95,3.65,23.95-.12,34.95-.27,38.12,.18,39.47c.45,1.36,.3,2.56,7.99,10.1,7.69,7.54,16.28,13.56,19.44,13.41h1.36c3.16,.15,11.75-5.88,19.44-13.41,7.69-7.54,7.54-8.74,7.99-10.1,.45-1.36,.3-4.52-3.47-15.52Zm-10.4,16.13c-8.29-6.63-14.32-7.23-14.32-7.23-4.67,0-14.02,7.23-14.02,7.23l-3.16-11.3c1.95-2.33,4.72-4.78,7.47-6.96h19.58c4.16,3.55,7.47,6.96,7.47,6.96l-3.01,11.3Z"/><g><ellipse class="d" cx="21.4" cy="28.82" rx="3.08" ry="2.25" transform="translate(-2.76 2.27) rotate(-5.71)"/><ellipse class="d" cx="35.17" cy="28.82" rx="2.25" ry="3.08" transform="translate(2.99 60.95) rotate(-84.29)"/></g></g><g><path class="d" d="M72.48,20.35h8.72l-.13,4.14h.04c.92-2.82,3.35-4.49,7.18-4.49,5.9,0,9.47,4.1,9.47,10.75,0,7.44-3.79,11.72-9.65,11.72-3.83,0-6.08-1.54-7.05-3.96h-.04c.09,1.32,.18,3.35,.18,4.23v8.11h-8.72V20.35Zm16.61,10.7c0-3.08-1.45-4.85-3.74-4.85-2.42,0-4.14,1.81-4.14,4.93v.97c.09,2.55,1.76,4.14,4.18,4.14,2.25,0,3.7-1.89,3.7-5.2Z"/><path class="d" d="M101.39,11.58h8.72v30.53h-8.72V11.58Z"/><path class="d" d="M113.74,36.12c0-3.44,2.33-5.95,7.75-5.95h6.96v-1.59c0-2.03-1.06-2.91-3.35-2.91-1.94,0-2.99,.88-2.99,2.38,0,.09,0,.44,.04,.88h-7.62c-.09-.44-.13-.97-.13-1.45,0-4.63,3.66-7.49,11.14-7.49,7.88,0,11.63,3.52,11.63,9.29v12.82h-8.72c.13-.93,.26-2.78,.26-4.14h-.04c-.66,2.73-2.82,4.49-6.87,4.49-5.37,0-8.06-2.6-8.06-6.34Zm14.71-1.85v-.57h-4.49c-1.45,0-2.29,.7-2.29,1.76,0,1.32,1.06,2.07,2.82,2.07,2.47,0,3.96-1.19,3.96-3.26Z"/><path class="d" d="M142.5,50.79v-5.99c.71,.18,1.81,.31,3,.31,1.94,0,2.73-.79,3.57-3h-1.85l-8.63-21.76h10l4.32,13.04h.09l3.88-13.04h8.11l-7.53,22.42c-2.11,6.39-4.98,8.63-10.13,8.63-2.2,0-4.01-.35-4.8-.62Z"/><path class="d" d="M167.68,11.58h8.72v30.53h-8.72V11.58Z"/><path class="d" d="M180.66,12.42h8.77v5.95h-8.77v-5.95Zm0,7.93h8.72v21.76h-8.72V20.35Z"/><path class="d" d="M193.03,34.8h7.4c.04,1.81,.88,2.86,3.66,2.86,2.51,0,3.44-.88,3.44-2.16,0-.79-.4-1.32-1.54-1.5-1.1-.22-2.6-.35-4.32-.53-3-.26-5.2-.75-6.52-1.59-1.28-.88-2.11-2.51-2.11-4.36,0-4.71,4.63-7.53,11.37-7.53,7.93,0,10.97,2.86,10.97,7.8h-7.36c0-2.03-.84-3-3.22-3-2.25,0-3.17,.88-3.17,2.11,0,.88,.35,1.54,1.63,1.81,1.1,.18,2.78,.35,4.71,.53,2.38,.26,4.32,.53,5.86,1.41,1.54,.88,2.42,2.51,2.42,4.36,0,4.45-3.35,7.44-11.89,7.44s-11.32-3.44-11.32-7.66Z"/><path class="d" d="M221.11,34.44v-7.53h-3v-6.56h2.38c1.19,0,1.72-.57,1.85-2.16l.31-2.77h7.18v4.93h6.43v6.56h-6.43v6.7c0,1.81,.84,2.38,3.3,2.38,1.01,0,2.29-.13,2.86-.26v6.25c-.66,.18-2.64,.48-5.02,.48-7.31,0-9.87-3.08-9.87-8.02Z"/><path class="d" d="M240.05,20.35h8.72l-.26,5.81h.09c1.01-3.79,3.39-6.17,8.24-6.17,5.37,0,8.24,3.04,8.24,8.5v13.61h-8.72v-11.41c0-2.38-1.28-3.44-3.44-3.44-2.55,0-4.14,1.54-4.14,4.71v10.13h-8.72V20.35Z"/><path class="d" d="M269.25,12.42h8.77v5.95h-8.77v-5.95Zm0,7.93h8.72v21.76h-8.72V20.35Z"/><path class="d" d="M282.24,20.35h8.72l-.26,5.81h.09c1.01-3.79,3.39-6.17,8.24-6.17,5.37,0,8.24,3.04,8.24,8.5v13.61h-8.72v-11.41c0-2.38-1.28-3.44-3.44-3.44-2.55,0-4.14,1.54-4.14,4.71v10.13h-8.72V20.35Z"/><path class="d" d="M306.2,50.96v-6.08c.75,.13,1.5,.22,2.33,.22,1.98,0,2.86-1.15,2.86-3.13V20.35h8.72v22.11c0,5.29-2.55,8.94-8.68,8.94-2.6,0-4.4-.26-5.24-.44Zm5.2-38.54h8.72v5.95h-8.72v-5.95Z"/><path class="d" d="M323.79,36.12c0-3.44,2.33-5.95,7.75-5.95h6.96v-1.59c0-2.03-1.06-2.91-3.35-2.91-1.94,0-2.99,.88-2.99,2.38,0,.09,0,.44,.04,.88h-7.62c-.09-.44-.13-.97-.13-1.45,0-4.63,3.66-7.49,11.14-7.49,7.88,0,11.63,3.52,11.63,9.29v12.82h-8.72c.13-.93,.26-2.78,.26-4.14h-.04c-.66,2.73-2.82,4.49-6.87,4.49-5.37,0-8.06-2.6-8.06-6.34Zm14.71-1.85v-.57h-4.49c-1.45,0-2.29,.7-2.29,1.76,0,1.32,1.06,2.07,2.82,2.07,2.47,0,3.96-1.19,3.96-3.26Z"/></g></g></g></svg>